<svg width="20" height="20" viewBox="0 0 20 20" fill="none" xmlns="http://www.w3.org/2000/svg">
<path d="M19.6803 5.08077L19.0252 4.42109C18.819 4.21507 18.5447 4.10158 18.2515 4.10158C17.9585 4.10158 17.6839 4.21507 17.4777 4.42109L10.0045 11.8946L2.52262 4.4128C2.31677 4.20678 2.04213 4.09344 1.74912 4.09344C1.45611 4.09344 1.18131 4.20678 0.975293 4.4128L0.320003 5.06841C-0.106668 5.49476 -0.106668 6.18923 0.320003 6.61558L9.22804 15.5557C9.4339 15.7615 9.70821 15.9065 10.0038 15.9065H10.0072C10.3004 15.9065 10.5747 15.7613 10.7806 15.5557L19.6803 6.63981C19.8865 6.43395 19.9997 6.15135 20 5.85834C20 5.56516 19.8865 5.28646 19.6803 5.08077Z" fill="white"/>
</svg>
