<svg width="27" height="27" viewBox="0 0 27 27" fill="none" xmlns="http://www.w3.org/2000/svg">
<g clip-path="url(#clip0)">
<path d="M13.792 6.164C15.4941 6.164 16.874 4.78414 16.874 3.082C16.874 1.37986 15.4941 0 13.792 0C12.0898 0 10.71 1.37986 10.71 3.082C10.71 4.78414 12.0898 6.164 13.792 6.164Z" fill="#256CFE"/>
<path d="M13.792 26.35C14.8132 26.35 15.641 25.5222 15.641 24.501C15.641 23.4798 14.8132 22.652 13.792 22.652C12.7708 22.652 11.943 23.4798 11.943 24.501C11.943 25.5222 12.7708 26.35 13.792 26.35Z" fill="#256CFE"/>
<path d="M6.21895 8.99197C7.75098 8.99197 8.99295 7.75001 8.99295 6.21797C8.99295 4.68593 7.75098 3.44397 6.21895 3.44397C4.68691 3.44397 3.44495 4.68593 3.44495 6.21797C3.44495 7.75001 4.68691 8.99197 6.21895 8.99197Z" fill="#256CFE"/>
<path d="M21.365 22.904C22.216 22.904 22.906 22.2141 22.906 21.363C22.906 20.512 22.216 19.822 21.365 19.822C20.5139 19.822 19.824 20.512 19.824 21.363C19.824 22.2141 20.5139 22.904 21.365 22.904Z" fill="#256CFE"/>
<path d="M3.08194 16.257C4.44333 16.257 5.54694 15.1534 5.54694 13.792C5.54694 12.4306 4.44333 11.327 3.08194 11.327C1.72056 11.327 0.616943 12.4306 0.616943 13.792C0.616943 15.1534 1.72056 16.257 3.08194 16.257Z" fill="#256CFE"/>
<path d="M24.5009 15.023C25.1813 15.023 25.7329 14.4714 25.7329 13.791C25.7329 13.1106 25.1813 12.559 24.5009 12.559C23.8205 12.559 23.2689 13.1106 23.2689 13.791C23.2689 14.4714 23.8205 15.023 24.5009 15.023Z" fill="#256CFE"/>
<path d="M4.6939 19.84C3.8509 20.683 3.8509 22.047 4.6939 22.89C5.5359 23.733 6.9019 23.733 7.7439 22.89C8.5869 22.047 8.5869 20.683 7.7439 19.84C6.9019 18.996 5.5369 18.988 4.6939 19.84Z" fill="#256CFE"/>
<path d="M21.3639 7.14201C21.8743 7.14201 22.2879 6.72832 22.2879 6.21801C22.2879 5.7077 21.8743 5.29401 21.3639 5.29401C20.8536 5.29401 20.4399 5.7077 20.4399 6.21801C20.4399 6.72832 20.8536 7.14201 21.3639 7.14201Z" fill="#256CFE"/>
</g>
<defs>
<clipPath id="clip0">
<rect width="26.349" height="26.35" fill="white"/>
</clipPath>
</defs>
</svg>
